<svg width="520" height="153" viewBox="0 0 520 153" fill="none" xmlns="http://www.w3.org/2000/svg">
<path d="M47.7578 125.414C48.7995 125.74 49.8411 125.967 50.8828 126.098C51.9245 126.163 52.9661 126.195 54.0078 126.195C56.612 126.195 59.1185 125.837 61.5273 125.121C63.9362 124.405 66.1823 123.396 68.2656 122.094C70.4141 120.727 72.3021 119.099 73.9297 117.211C75.6224 115.258 76.9896 113.109 78.0312 110.766L97.5625 130.395C95.0885 133.91 92.224 137.068 88.9688 139.867C85.7786 142.667 82.2956 145.043 78.5195 146.996C74.8086 148.949 70.8698 150.414 66.7031 151.391C62.6016 152.432 58.3698 152.953 54.0078 152.953C46.651 152.953 39.7174 151.586 33.207 148.852C26.7617 146.117 21.0977 142.309 16.2148 137.426C11.3971 132.543 7.58854 126.749 4.78906 120.043C1.98958 113.272 0.589844 105.85 0.589844 97.7773C0.589844 89.5091 1.98958 81.957 4.78906 75.1211C7.58854 68.2852 11.3971 62.4583 16.2148 57.6406C21.0977 52.8229 26.7617 49.0794 33.207 46.4102C39.7174 43.7409 46.651 42.4062 54.0078 42.4062C58.3698 42.4062 62.6341 42.9271 66.8008 43.9688C70.9674 45.0104 74.9062 46.5078 78.6172 48.4609C82.3932 50.4141 85.9089 52.8229 89.1641 55.6875C92.4193 58.487 95.2839 61.6445 97.7578 65.1602L47.7578 125.414ZM61.4297 70.4336C60.1927 69.9779 58.9557 69.6849 57.7188 69.5547C56.5469 69.4245 55.3099 69.3594 54.0078 69.3594C50.362 69.3594 46.9115 70.043 43.6562 71.4102C40.4661 72.7122 37.6667 74.6003 35.2578 77.0742C32.9141 79.5482 31.0586 82.543 29.6914 86.0586C28.3242 89.5091 27.6406 93.4154 27.6406 97.7773C27.6406 98.7539 27.6732 99.8607 27.7383 101.098C27.8685 102.335 28.0312 103.604 28.2266 104.906C28.487 106.143 28.7799 107.348 29.1055 108.52C29.431 109.691 29.8542 110.733 30.375 111.645L61.4297 70.4336ZM139.555 151L99.7109 46.4102H130.082L152.934 111.645L175.688 46.4102H206.156L166.312 151H139.555ZM314.262 97.7773C314.262 105.59 312.862 112.882 310.062 119.652C307.263 126.358 303.454 132.185 298.637 137.133C293.819 142.016 288.155 145.889 281.645 148.754C275.199 151.553 268.266 152.953 260.844 152.953C253.487 152.953 246.553 151.553 240.043 148.754C233.598 145.889 227.934 142.016 223.051 137.133C218.233 132.185 214.424 126.358 211.625 119.652C208.826 112.882 207.426 105.59 207.426 97.7773C207.426 89.8346 208.826 82.4779 211.625 75.707C214.424 68.9362 218.233 63.1094 223.051 58.2266C227.934 53.2786 233.598 49.4049 240.043 46.6055C246.553 43.806 253.487 42.4062 260.844 42.4062C268.266 42.4062 275.199 43.7409 281.645 46.4102C288.155 49.0143 293.819 52.7578 298.637 57.6406C303.454 62.4583 307.263 68.2852 310.062 75.1211C312.862 81.8919 314.262 89.444 314.262 97.7773ZM287.406 97.7773C287.406 93.4805 286.69 89.6068 285.258 86.1562C283.891 82.6406 282.003 79.6458 279.594 77.1719C277.185 74.6328 274.353 72.7122 271.098 71.4102C267.908 70.043 264.49 69.3594 260.844 69.3594C257.198 69.3594 253.747 70.043 250.492 71.4102C247.302 72.7122 244.503 74.6328 242.094 77.1719C239.75 79.6458 237.895 82.6406 236.527 86.1562C235.16 89.6068 234.477 93.4805 234.477 97.7773C234.477 101.814 235.16 105.557 236.527 109.008C237.895 112.458 239.75 115.453 242.094 117.992C244.503 120.531 247.302 122.549 250.492 124.047C253.747 125.479 257.198 126.195 260.844 126.195C264.49 126.195 267.908 125.512 271.098 124.145C274.353 122.777 277.185 120.857 279.594 118.383C282.003 115.909 283.891 112.914 285.258 109.398C286.69 105.883 287.406 102.009 287.406 97.7773ZM355.863 151H329.008V4.80859H355.863V151ZM407.719 17.9922C407.719 20.4661 407.23 22.7773 406.254 24.9258C405.342 27.0742 404.073 28.9622 402.445 30.5898C400.818 32.1523 398.897 33.4219 396.684 34.3984C394.535 35.3099 392.224 35.7656 389.75 35.7656C387.276 35.7656 384.932 35.3099 382.719 34.3984C380.57 33.4219 378.682 32.1523 377.055 30.5898C375.492 28.9622 374.223 27.0742 373.246 24.9258C372.335 22.7773 371.879 20.4661 371.879 17.9922C371.879 15.5833 372.335 13.3047 373.246 11.1562C374.223 8.94271 375.492 7.05469 377.055 5.49219C378.682 3.86458 380.57 2.59505 382.719 1.68359C384.932 0.707031 387.276 0.21875 389.75 0.21875C392.224 0.21875 394.535 0.707031 396.684 1.68359C398.897 2.59505 400.818 3.86458 402.445 5.49219C404.073 7.05469 405.342 8.94271 406.254 11.1562C407.23 13.3047 407.719 15.5833 407.719 17.9922ZM403.129 151H376.273V46.4102H403.129V151ZM519.828 151H487.211L466.41 118.969L445.414 151H412.797L450.98 97.3867L412.797 45.8242H445.414L466.41 75.8047L487.211 45.8242H519.828L481.547 97.3867L519.828 151Z" fill="url(#paint0_linear_10_2)"/>
<defs>
<linearGradient id="paint0_linear_10_2" x1="18.8691" y1="43.0256" x2="505.04" y2="148.138" gradientUnits="userSpaceOnUse">
<stop stop-color="#FFCC00"/>
<stop offset="1" stop-color="#D88200"/>
</linearGradient>
</defs>
</svg>
